<?xml version="1.0" encoding="UTF-8"?>
<svg xmlns="http://www.w3.org/2000/svg" xmlns:xlink="http://www.w3.org/1999/xlink" width="50px" height="50px" viewBox="0 0 50 50" version="1.1">
<g id="surface1">
<path style=" stroke:none;fill-rule:nonzero;fill:rgb(69.803922%,69.803922%,69.803922%);fill-opacity:1;" d="M 25 0 L 50 7 L 46 40 L 25 50 L 4 40 L 0 7 Z M 25 0 "/>
<path style=" stroke:none;fill-rule:nonzero;fill:rgb(89.411765%,16.078431%,22.352941%);fill-opacity:1;" d="M 25 2.5 L 3 9 L 6.75 38.5 L 25 47 Z M 25 2.5 "/>
<path style=" stroke:none;fill-rule:nonzero;fill:rgb(71.764706%,15.686275%,20%);fill-opacity:1;" d="M 25 2.5 L 47 9 L 43.25 38.5 L 25 47 Z M 25 2.5 "/>
<path style=" stroke:none;fill-rule:nonzero;fill:rgb(69.803922%,69.803922%,69.803922%);fill-opacity:1;" d="M 25 3.5 L 41.5 37.5 L 36 37.5 L 32.5 29.5 L 25 29.5 L 25 25 L 30.5 25 L 25 13 Z M 25 3.5 "/>
<path style=" stroke:none;fill-rule:nonzero;fill:rgb(100%,100%,100%);fill-opacity:1;" d="M 25 3.5 L 8.5 37.5 L 14 37.5 L 17.5 29.5 L 25 29.5 L 25 25 L 19.5 25 L 25 13 Z M 25 3.5 "/>
</g>
</svg>
