<?xml version="1.0" encoding="UTF-8"?>
<svg xmlns="http://www.w3.org/2000/svg" xmlns:xlink="http://www.w3.org/1999/xlink" width="50px" height="40px" viewBox="0 0 50 40" version="1.1">
<defs>
<linearGradient id="linear0" gradientUnits="userSpaceOnUse" x1="361.03" y1="633.85" x2="691.41" y2="371.6" gradientTransform="matrix(0.132152,0,0,-0.132767,-42.661926,88.242167)">
<stop offset="0" style="stop-color:rgb(56.470588%,7.45098%,99.607843%);stop-opacity:1;"/>
<stop offset="1" style="stop-color:rgb(40%,6.27451%,94.901961%);stop-opacity:1;"/>
</linearGradient>
<linearGradient id="linear1" gradientUnits="userSpaceOnUse" x1="462.63" y1="581.7" x2="536.48" y2="456.81" gradientTransform="matrix(1,0,0,-1,0,1026)">
<stop offset="0" style="stop-color:rgb(100%,100%,100%);stop-opacity:1;"/>
<stop offset="1" style="stop-color:rgb(94.509804%,89.803922%,98.823529%);stop-opacity:1;"/>
</linearGradient>
</defs>
<g id="surface1">
<path style=" stroke:none;fill-rule:nonzero;fill:url(#linear0);" d="M 5.53125 5.226562 C 5.4375 2.507812 7.546875 0 10.394531 0 L 39.609375 0 C 42.457031 0 44.566406 2.507812 44.472656 5.226562 C 44.382812 7.839844 44.5 11.222656 45.347656 13.984375 C 46.195312 16.742188 47.632812 18.496094 49.980469 18.726562 L 49.980469 21.273438 C 47.632812 21.5 46.199219 23.25 45.347656 26.015625 C 44.5 28.785156 44.382812 32.160156 44.472656 34.78125 C 44.566406 37.5 42.457031 40.007812 39.609375 40.007812 L 10.394531 40.007812 C 7.546875 40.007812 5.4375 37.5 5.53125 34.78125 C 5.621094 32.167969 5.503906 28.78125 4.65625 26.015625 C 3.808594 23.25 2.367188 21.503906 0.0195312 21.273438 L 0.0195312 18.726562 C 2.367188 18.5 3.804688 16.75 4.65625 13.984375 C 5.507812 11.214844 5.621094 7.839844 5.53125 5.226562 Z M 5.53125 5.226562 "/>
<path style="fill-rule:nonzero;fill:url(#linear1);stroke-width:1;stroke-linecap:butt;stroke-linejoin:miter;stroke:rgb(100%,100%,100%);stroke-opacity:1;stroke-miterlimit:4;" d="M 520.187766 592.086344 C 555.126174 592.086344 576.201542 574.992234 576.201542 546.776656 C 576.201542 525.445797 561.185712 510.028734 538.898436 507.586719 L 538.898436 506.704062 C 555.273967 504.026672 568.132011 488.815562 568.132011 471.809719 C 568.132011 447.595516 549.007519 431.825391 519.892178 431.825391 L 454.330935 431.825391 L 454.330935 592.086344 Z M 479.810553 452.155906 L 513.714406 452.155906 C 532.129489 452.155906 542.622835 460.394031 542.622835 475.2815 C 542.622835 491.139891 530.444642 500.025297 508.364277 500.025297 L 479.810553 500.025297 Z M 479.810553 571.755828 L 479.810553 519.002406 L 513.477936 519.002406 C 537.597852 519.002406 550.101191 527.887812 550.101191 545.217297 C 550.101191 562.546781 537.952557 571.755828 514.985431 571.755828 Z M 479.810553 571.755828 " transform="matrix(0.132152,0,0,0.132767,-42.661926,-47.976633)"/>
</g>
</svg>
