<?xml version="1.0" encoding="UTF-8"?>
<svg xmlns="http://www.w3.org/2000/svg" xmlns:xlink="http://www.w3.org/1999/xlink" width="50px" height="50px" viewBox="0 0 50 50" version="1.1">
<g id="surface1">
<path style=" stroke:none;fill-rule:nonzero;fill:rgb(14.901961%,30.196078%,89.411765%);fill-opacity:1;" d="M 6.96875 45 L 2.957031 0 L 47.042969 0 L 43.027344 44.996094 L 24.972656 50 Z M 6.96875 45 "/>
<path style=" stroke:none;fill-rule:nonzero;fill:rgb(16.078431%,39.607843%,94.509804%);fill-opacity:1;" d="M 39.589844 42.128906 L 43.019531 3.679688 L 25 3.679688 L 25 46.175781 Z M 39.589844 42.128906 "/>
<path style=" stroke:none;fill-rule:nonzero;fill:rgb(92.156863%,92.156863%,92.156863%);fill-opacity:1;" d="M 12.15625 20.371094 L 12.648438 25.890625 L 25 25.890625 L 25 20.371094 Z M 11.660156 14.71875 L 25 14.71875 L 25 9.199219 L 11.160156 9.199219 Z M 25 34.703125 L 24.976562 34.710938 L 18.828125 33.050781 L 18.4375 28.648438 L 12.894531 28.648438 L 13.667969 37.316406 L 24.976562 40.453125 L 25 40.445312 Z M 25 34.703125 "/>
<path style=" stroke:none;fill-rule:nonzero;fill:rgb(100%,100%,100%);fill-opacity:1;" d="M 24.980469 20.371094 L 24.980469 25.890625 L 31.777344 25.890625 L 31.136719 33.046875 L 24.980469 34.707031 L 24.980469 40.449219 L 36.296875 37.316406 L 36.378906 36.382812 L 37.675781 21.851562 L 37.808594 20.371094 L 38.808594 9.199219 L 24.980469 9.199219 L 24.980469 14.71875 L 32.757812 14.71875 L 32.257812 20.371094 Z M 24.980469 20.371094 "/>
</g>
</svg>
