<?xml version="1.0" encoding="UTF-8"?>
<svg xmlns="http://www.w3.org/2000/svg" xmlns:xlink="http://www.w3.org/1999/xlink" width="44px" height="50px" viewBox="0 0 44 50" version="1.1">
<g id="surface1">
<path style=" stroke:none;fill-rule:nonzero;fill:rgb(91.372549%,79.215686%,19.607843%);fill-opacity:1;" d="M 3.683594 44.761719 L 0 0.0820312 L 44 0.171875 L 40.105469 44.761719 L 22.167969 49.917969 Z M 3.683594 44.761719 "/>
<path style=" stroke:none;fill-rule:nonzero;fill:rgb(100%,87.058824%,14.509804%);fill-opacity:1;" d="M 22.167969 45.601562 L 22.167969 4.339844 L 40.285156 4.398438 L 37.054688 41.316406 Z M 22.167969 45.601562 "/>
<path style=" stroke:none;fill-rule:nonzero;fill:rgb(100%,100%,100%);fill-opacity:1;" d="M 20.226562 9.238281 L 15.433594 9.238281 L 15.433594 36.703125 L 11.710938 35.996094 L 11.710938 32.300781 L 7.273438 31.597656 L 7.273438 39.871094 L 20.226562 43.214844 Z M 23.820312 9.238281 L 37.082031 9.238281 L 36.195312 14.5 L 28.882812 14.5 L 28.882812 23.140625 L 36.195312 23.140625 L 35.304688 40.574219 L 23.820312 43.214844 L 23.820312 37.757812 L 31.582031 35.117188 L 32.027344 27.898438 L 23.820312 29.078125 Z M 23.820312 9.238281 "/>
</g>
</svg>
