<?xml version="1.0" encoding="UTF-8"?>
<svg xmlns="http://www.w3.org/2000/svg" xmlns:xlink="http://www.w3.org/1999/xlink" width="50px" height="50px" viewBox="0 0 50 49" version="1.1">
<g id="surface1">
<path style=" stroke:none;fill-rule:evenodd;fill:rgb(12.941176%,37.647059%,60.784314%);fill-opacity:1;" d="M 48.839844 36.355469 L 48.617188 36.929688 C 44.804688 44.269531 38.046875 48.769531 28.40625 48.96875 C 23.902344 49.058594 19.605469 47.917969 16.800781 46.675781 C 10.746094 43.992188 5.65625 39.003906 2.875 33.683594 C -1.109375 26.050781 -1.832031 15.433594 6.460938 7.507812 C 6.585938 7.507812 5.457031 9.226562 5.582031 9.226562 L 5.355469 9.960938 C -0.621094 28.449219 17.789062 44.289062 35.683594 42.480469 C 39.992188 42.035156 45.476562 39.707031 48.839844 36.355469 Z M 48.839844 36.355469 Z M 48.839844 36.355469 "/>
<path style=" stroke:none;fill-rule:evenodd;fill:rgb(12.941176%,37.647059%,60.784314%);fill-opacity:1;" d="M 38.007812 28.714844 C 42.511719 28.746094 47.210938 26.664062 50 23.746094 C 47.5625 29.855469 40.507812 33.78125 31.046875 32.53125 C 23.125 31.484375 15.582031 23.609375 14.804688 15.714844 C 14.234375 9.96875 16.261719 6.546875 19.601562 2.382812 C 18.441406 4.558594 18.003906 6.234375 17.898438 7.304688 C 16.625 19.734375 27.941406 28.648438 38.007812 28.714844 Z M 38.007812 28.714844 Z M 38.007812 28.714844 "/>
<path style=" stroke:none;fill-rule:evenodd;fill:rgb(12.941176%,37.647059%,60.784314%);fill-opacity:1;" d="M 49.546875 13.285156 C 48.847656 14.871094 44.820312 17.867188 43.039062 18.242188 C 35.992188 19.722656 31.476562 16.421875 29.113281 12.664062 C 28.765625 12.101562 28.113281 10.570312 27.996094 10.179688 C 27.078125 7.101562 27.5 2.441406 30.234375 0.0273438 C 29.410156 2.320312 29.289062 4.984375 29.722656 6.71875 C 29.988281 7.761719 30.785156 9.59375 31.585938 10.742188 C 33.042969 12.835938 33.96875 13.34375 35.84375 14.457031 C 36.6875 14.957031 37.59375 15.359375 37.984375 15.46875 C 39.757812 15.984375 43.507812 17.34375 49.546875 13.285156 Z M 49.546875 13.285156 Z M 49.546875 13.285156 "/>
</g>
</svg>
