<?xml version="1.0" encoding="UTF-8"?>
<svg xmlns="http://www.w3.org/2000/svg" xmlns:xlink="http://www.w3.org/1999/xlink" width="50px" height="50px" viewBox="0 0 92 50" version="1.1">
<defs>
<clipPath id="clip1">
  <path d="M 1 1 L 91 1 L 91 49 L 1 49 Z M 1 1 "/>
</clipPath>
<clipPath id="clip2">
  <path d="M 1.292969 24.972656 C 1.292969 38.046875 21.316406 48.644531 46.011719 48.644531 C 70.710938 48.644531 90.730469 38.046875 90.730469 24.972656 C 90.730469 11.902344 70.710938 1.300781 46.011719 1.300781 C 21.316406 1.300781 1.292969 11.902344 1.292969 24.972656 "/>
</clipPath>
<radialGradient id="radial0" gradientUnits="userSpaceOnUse" cx="0" cy="0" fx="0" fy="0" r="1" gradientTransform="matrix(58.722444,0,0,59.091453,28.143463,9.624328)">
<stop offset="0" style="stop-color:rgb(68.235294%,69.803922%,83.529412%);stop-opacity:1;"/>
<stop offset="0.3" style="stop-color:rgb(68.235294%,69.803922%,83.529412%);stop-opacity:1;"/>
<stop offset="0.75" style="stop-color:rgb(28.235294%,29.803922%,53.72549%);stop-opacity:1;"/>
<stop offset="1" style="stop-color:rgb(28.235294%,29.803922%,53.72549%);stop-opacity:1;"/>
</radialGradient>
</defs>
<g id="surface1">
<g clip-path="url(#clip1)" clip-rule="nonzero">
<g clip-path="url(#clip2)" clip-rule="nonzero">
<path style=" stroke:none;fill-rule:nonzero;fill:url(#radial0);" d="M 1.292969 24.972656 C 1.292969 38.046875 21.316406 48.644531 46.011719 48.644531 C 70.710938 48.644531 90.730469 38.046875 90.730469 24.972656 C 90.730469 11.902344 70.710938 1.300781 46.011719 1.300781 C 21.316406 1.300781 1.292969 11.902344 1.292969 24.972656 "/>
</g>
</g>
<path style=" stroke:none;fill-rule:nonzero;fill:rgb(46.666667%,48.235294%,70.196078%);fill-opacity:1;" d="M 46.011719 46.886719 C 69.746094 46.886719 88.984375 37.078125 88.984375 24.972656 C 88.984375 12.871094 69.746094 3.058594 46.011719 3.058594 C 22.28125 3.058594 3.039062 12.871094 3.039062 24.972656 C 3.039062 37.078125 22.28125 46.886719 46.011719 46.886719 "/>
<path style=" stroke:none;fill-rule:nonzero;fill:rgb(0%,0%,0%);fill-opacity:1;" d="M 25.589844 27.691406 C 27.542969 27.691406 29 27.328125 29.921875 26.613281 C 30.832031 25.910156 31.460938 24.683594 31.792969 22.976562 C 32.101562 21.378906 31.984375 20.265625 31.445312 19.664062 C 30.894531 19.050781 29.703125 18.738281 27.902344 18.738281 L 24.785156 18.738281 L 23.054688 27.691406 Z M 15.390625 38.71875 C 15.246094 38.71875 15.109375 38.652344 15.015625 38.539062 C 14.921875 38.425781 14.886719 38.28125 14.914062 38.136719 L 19.496094 14.414062 C 19.539062 14.183594 19.738281 14.019531 19.972656 14.019531 L 29.847656 14.019531 C 32.949219 14.019531 35.261719 14.867188 36.710938 16.539062 C 38.171875 18.222656 38.625 20.570312 38.050781 23.527344 C 37.820312 24.730469 37.421875 25.847656 36.867188 26.847656 C 36.308594 27.847656 35.574219 28.777344 34.679688 29.601562 C 33.609375 30.609375 32.398438 31.339844 31.082031 31.769531 C 29.789062 32.195312 28.125 32.410156 26.140625 32.410156 L 22.144531 32.410156 L 21 38.324219 C 20.957031 38.550781 20.757812 38.71875 20.527344 38.71875 Z M 15.390625 38.71875 "/>
<path style=" stroke:none;fill-rule:nonzero;fill:rgb(100%,100%,100%);fill-opacity:1;" d="M 25.183594 19.226562 L 27.902344 19.226562 C 30.074219 19.226562 30.828125 19.707031 31.082031 19.992188 C 31.507812 20.464844 31.589844 21.464844 31.316406 22.882812 C 31.007812 24.472656 30.441406 25.597656 29.625 26.226562 C 28.789062 26.875 27.433594 27.203125 25.589844 27.203125 L 23.644531 27.203125 Z M 29.847656 13.53125 L 19.972656 13.53125 C 19.507812 13.53125 19.109375 13.863281 19.019531 14.320312 L 14.4375 38.042969 C 14.382812 38.328125 14.457031 38.625 14.640625 38.851562 C 14.824219 39.074219 15.101562 39.207031 15.390625 39.207031 L 20.527344 39.207031 C 20.992188 39.207031 21.390625 38.875 21.476562 38.414062 L 22.542969 32.898438 L 26.140625 32.898438 C 28.175781 32.898438 29.890625 32.675781 31.234375 32.234375 C 32.617188 31.785156 33.886719 31.019531 35.011719 29.960938 C 35.941406 29.097656 36.707031 28.132812 37.289062 27.085938 C 37.871094 26.039062 38.285156 24.871094 38.527344 23.617188 C 39.128906 20.507812 38.640625 18.019531 37.078125 16.21875 C 35.53125 14.433594 33.097656 13.53125 29.847656 13.53125 M 22.464844 28.179688 L 25.589844 28.179688 C 27.660156 28.179688 29.203125 27.785156 30.214844 27 C 31.230469 26.214844 31.914062 24.90625 32.269531 23.070312 C 32.609375 21.308594 32.453125 20.0625 31.804688 19.335938 C 31.152344 18.613281 29.855469 18.25 27.902344 18.25 L 24.382812 18.25 L 22.464844 28.179688 M 29.847656 14.507812 C 32.816406 14.507812 34.984375 15.292969 36.347656 16.859375 C 37.710938 18.429688 38.121094 20.621094 37.578125 23.433594 C 37.351562 24.589844 36.972656 25.648438 36.441406 26.609375 C 35.910156 27.570312 35.210938 28.445312 34.351562 29.242188 C 33.324219 30.207031 32.1875 30.898438 30.933594 31.308594 C 29.679688 31.71875 28.082031 31.921875 26.140625 31.921875 L 21.742188 31.921875 L 20.527344 38.230469 L 15.390625 38.230469 L 19.972656 14.507812 L 29.847656 14.507812 "/>
<path style=" stroke:none;fill-rule:nonzero;fill:rgb(0%,0%,0%);fill-opacity:1;" d="M 49.828125 32.410156 C 49.683594 32.410156 49.546875 32.347656 49.453125 32.234375 C 49.359375 32.121094 49.324219 31.972656 49.351562 31.828125 L 51.378906 21.332031 C 51.570312 20.335938 51.523438 19.617188 51.242188 19.316406 C 51.074219 19.128906 50.558594 18.820312 49.042969 18.820312 L 45.371094 18.820312 L 42.824219 32.015625 C 42.777344 32.246094 42.578125 32.410156 42.347656 32.410156 L 37.25 32.410156 C 37.105469 32.410156 36.96875 32.347656 36.878906 32.234375 C 36.785156 32.121094 36.746094 31.972656 36.777344 31.828125 L 41.355469 8.105469 C 41.402344 7.878906 41.601562 7.710938 41.832031 7.710938 L 46.929688 7.710938 C 47.074219 7.710938 47.210938 7.777344 47.304688 7.890625 C 47.394531 8.003906 47.433594 8.148438 47.40625 8.292969 L 46.300781 14.019531 L 50.25 14.019531 C 53.257812 14.019531 55.300781 14.554688 56.488281 15.652344 C 57.699219 16.773438 58.078125 18.5625 57.609375 20.976562 L 55.480469 32.015625 C 55.433594 32.246094 55.234375 32.410156 55.003906 32.410156 Z M 49.828125 32.410156 "/>
<path style=" stroke:none;fill-rule:nonzero;fill:rgb(100%,100%,100%);fill-opacity:1;" d="M 46.929688 7.222656 L 41.832031 7.222656 C 41.367188 7.222656 40.96875 7.554688 40.882812 8.015625 L 36.300781 31.734375 C 36.242188 32.023438 36.320312 32.320312 36.503906 32.542969 C 36.6875 32.769531 36.960938 32.898438 37.25 32.898438 L 42.347656 32.898438 C 42.8125 32.898438 43.210938 32.566406 43.300781 32.109375 L 45.769531 19.308594 L 49.042969 19.308594 C 50.558594 19.308594 50.875 19.632812 50.886719 19.648438 C 50.980469 19.746094 51.101562 20.207031 50.902344 21.238281 L 48.875 31.734375 C 48.820312 32.023438 48.894531 32.320312 49.078125 32.542969 C 49.261719 32.769531 49.539062 32.898438 49.828125 32.898438 L 55.003906 32.898438 C 55.46875 32.898438 55.867188 32.566406 55.957031 32.109375 L 58.085938 21.070312 C 58.585938 18.476562 58.160156 16.535156 56.816406 15.292969 C 55.535156 14.105469 53.386719 13.53125 50.25 13.53125 L 46.886719 13.53125 L 47.882812 8.386719 C 47.9375 8.101562 47.863281 7.804688 47.675781 7.578125 C 47.492188 7.355469 47.21875 7.222656 46.929688 7.222656 M 46.929688 8.199219 L 45.710938 14.507812 L 50.25 14.507812 C 53.105469 14.507812 55.074219 15.007812 56.160156 16.011719 C 57.242188 17.011719 57.566406 18.636719 57.136719 20.882812 L 55.003906 31.921875 L 49.828125 31.921875 L 51.855469 21.425781 C 52.085938 20.230469 52 19.417969 51.597656 18.984375 C 51.199219 18.550781 50.347656 18.332031 49.042969 18.332031 L 44.972656 18.332031 L 42.347656 31.921875 L 37.25 31.921875 L 41.832031 8.199219 L 46.929688 8.199219 "/>
<path style=" stroke:none;fill-rule:nonzero;fill:rgb(0%,0%,0%);fill-opacity:1;" d="M 65.671875 27.691406 C 67.625 27.691406 69.082031 27.328125 70.003906 26.613281 C 70.914062 25.910156 71.542969 24.683594 71.875 22.976562 C 72.183594 21.378906 72.066406 20.265625 71.527344 19.664062 C 70.976562 19.050781 69.785156 18.738281 67.984375 18.738281 L 64.867188 18.738281 L 63.136719 27.691406 Z M 55.472656 38.71875 C 55.328125 38.71875 55.191406 38.652344 55.097656 38.539062 C 55.007812 38.425781 54.96875 38.28125 54.996094 38.136719 L 59.578125 14.414062 C 59.621094 14.183594 59.824219 14.019531 60.054688 14.019531 L 69.929688 14.019531 C 73.035156 14.019531 75.34375 14.867188 76.796875 16.539062 C 78.253906 18.222656 78.707031 20.570312 78.136719 23.527344 C 77.902344 24.730469 77.503906 25.847656 76.949219 26.847656 C 76.390625 27.847656 75.65625 28.777344 74.761719 29.601562 C 73.691406 30.609375 72.480469 31.339844 71.167969 31.769531 C 69.871094 32.195312 68.210938 32.410156 66.226562 32.410156 L 62.226562 32.410156 L 61.085938 38.324219 C 61.039062 38.550781 60.839844 38.71875 60.609375 38.71875 Z M 55.472656 38.71875 "/>
<path style=" stroke:none;fill-rule:nonzero;fill:rgb(100%,100%,100%);fill-opacity:1;" d="M 65.265625 19.226562 L 67.984375 19.226562 C 70.15625 19.226562 70.910156 19.707031 71.167969 19.992188 C 71.589844 20.464844 71.671875 21.464844 71.398438 22.882812 C 71.089844 24.472656 70.523438 25.597656 69.707031 26.226562 C 68.871094 26.875 67.515625 27.203125 65.671875 27.203125 L 63.726562 27.203125 Z M 69.929688 13.53125 L 60.054688 13.53125 C 59.589844 13.53125 59.191406 13.863281 59.101562 14.320312 L 54.519531 38.042969 C 54.464844 38.328125 54.539062 38.625 54.722656 38.851562 C 54.910156 39.074219 55.183594 39.207031 55.472656 39.207031 L 60.609375 39.207031 C 61.074219 39.207031 61.472656 38.875 61.5625 38.414062 L 62.625 32.898438 L 66.226562 32.898438 C 68.261719 32.898438 69.972656 32.675781 71.316406 32.234375 C 72.699219 31.785156 73.96875 31.019531 75.09375 29.960938 C 76.023438 29.097656 76.789062 28.132812 77.371094 27.085938 C 77.953125 26.039062 78.371094 24.871094 78.613281 23.617188 C 79.210938 20.507812 78.722656 18.019531 77.160156 16.21875 C 75.613281 14.433594 73.179688 13.53125 69.929688 13.53125 M 62.550781 28.179688 L 65.671875 28.179688 C 67.742188 28.179688 69.285156 27.785156 70.300781 27 C 71.3125 26.214844 71.996094 24.90625 72.351562 23.070312 C 72.691406 21.308594 72.535156 20.0625 71.886719 19.335938 C 71.238281 18.613281 69.9375 18.25 67.984375 18.25 L 64.46875 18.25 L 62.550781 28.179688 M 69.929688 14.507812 C 72.902344 14.507812 75.066406 15.292969 76.429688 16.859375 C 77.792969 18.429688 78.203125 20.621094 77.660156 23.433594 C 77.433594 24.589844 77.058594 25.648438 76.523438 26.609375 C 75.992188 27.570312 75.292969 28.445312 74.433594 29.242188 C 73.410156 30.207031 72.269531 30.898438 71.015625 31.308594 C 69.761719 31.71875 68.167969 31.921875 66.226562 31.921875 L 61.828125 31.921875 L 60.609375 38.230469 L 55.472656 38.230469 L 60.054688 14.507812 L 69.929688 14.507812 "/>
</g>
</svg>
