<?xml version="1.0" encoding="UTF-8"?>
<svg xmlns="http://www.w3.org/2000/svg" xmlns:xlink="http://www.w3.org/1999/xlink" width="56px" height="50px" viewBox="0 0 57 50" version="1.1">
<g id="surface1">
<path style=" stroke:none;fill-rule:nonzero;fill:rgb(38.039216%,85.490196%,98.431373%);fill-opacity:1;" d="M 33.464844 25 C 33.464844 27.765625 31.242188 30.007812 28.5 30.007812 C 25.757812 30.007812 23.535156 27.765625 23.535156 25 C 23.535156 22.234375 25.757812 19.992188 28.5 19.992188 C 31.242188 19.992188 33.464844 22.234375 33.464844 25 Z M 33.464844 25 "/>
<path style="fill:none;stroke-width:1;stroke-linecap:butt;stroke-linejoin:miter;stroke:rgb(38.039216%,85.490196%,98.431373%);stroke-opacity:1;stroke-miterlimit:4;" d="M 11.000453 0 C 11.000453 -2.319727 6.075166 -4.19981 0 -4.19981 C -6.075166 -4.19981 -11.000453 -2.319727 -11.000453 0 C -11.000453 2.319727 -6.075166 4.19981 0 4.19981 C 6.075166 4.19981 11.000453 2.319727 11.000453 0 Z M 11.000453 0 " transform="matrix(2.42213,0,0,2.443377,28.5,25)"/>
<path style="fill:none;stroke-width:1;stroke-linecap:butt;stroke-linejoin:miter;stroke:rgb(38.039216%,85.490196%,98.431373%);stroke-opacity:1;stroke-miterlimit:4;" d="M 11.000082 0.000717146 C 10.999651 -2.319863 6.074753 -4.200484 -0.000906516 -4.199838 C -6.074375 -4.199789 -10.999935 -2.319101 -11.000082 -0.000717146 C -10.999651 2.319863 -6.074753 4.200484 0.000906516 4.199838 C 6.074375 4.199789 10.999935 2.319101 11.000082 0.000717146 Z M 11.000082 0.000717146 " transform="matrix(1.211065,2.116027,-2.097626,1.221689,28.5,25)"/>
<path style="fill:none;stroke-width:1;stroke-linecap:butt;stroke-linejoin:miter;stroke:rgb(38.039216%,85.490196%,98.431373%);stroke-opacity:1;stroke-miterlimit:4;" d="M 11.000082 -0.000717146 C 10.999935 -2.319101 6.074375 -4.199789 0.000906516 -4.199838 C -6.074753 -4.200484 -10.999651 -2.319863 -11.000082 0.000717146 C -10.999935 2.319101 -6.074375 4.199789 -0.000906516 4.199838 C 6.074753 4.200484 10.999651 2.319863 11.000082 -0.000717146 Z M 11.000082 -0.000717146 " transform="matrix(-1.211065,2.116027,-2.097626,-1.221689,28.5,25)"/>
</g>
</svg>
